<?xml version="1.0" encoding="utf-8"?>
<!-- Generator: Adobe Illustrator 23.1.0, SVG Export Plug-In . SVG Version: 6.00 Build 0)  -->
<svg version="1.1" id="Capa_1" xmlns="http://www.w3.org/2000/svg" xmlns:xlink="http://www.w3.org/1999/xlink" x="0px" y="0px"
	 viewBox="0 0 1920 1080" style="enable-background:new 0 0 1920 1080;" xml:space="preserve">
<style type="text/css">
	.st0{fill:#9BE22B;}
	.st1{font-family:'BerlinSansFB-Reg';}
	.st2{font-size:185.8005px;}
	.st3{fill:#1A1A1A;}
	.st4{font-family:'BerlinSansFBDemi-Bold';}
	.st5{font-size:704.0861px;}
	.st6{font-size:116.7404px;}
</style>
<g>
	<text transform="matrix(1 0 0 1 519.5325 386.5964)"><tspan x="0" y="0" class="st0 st1 st2">Supermar</tspan><tspan x="766.16" y="0" class="st0 st1 st2">k</tspan><tspan x="867.58" y="0" class="st0 st1 st2">et</tspan></text>
	<g>
		<text transform="matrix(1 0 0 1 30.7385 762.1707)"><tspan x="0" y="0" class="st3 st4 st5">Sh</tspan><tspan x="690.68" y="0" class="st3 st4 st5">o</tspan><tspan x="1062.3" y="0" class="st3 st4 st5">op</tspan></text>
		<text transform="matrix(1 0 0 1 1283.5828 887.116)" class="st4 st6"> </text>
		<path class="st3" d="M1033.81,829.35c-30.42-0.6-33.18,44.73-2.9,47.67c94.11,9.12,190.5-7.87,277.91-51.57h0
			c13.28-6.64,8.56-26.66-6.29-26.66c-54.26,13.61-119.84,25.37-194.65,29.34C1082.34,829.48,1057.62,829.82,1033.81,829.35z"/>
		<path class="st3" d="M1127.44,661.88c-6.52-3.48-20.43-9.78-39.12-9.78c-7.39,0-22.63,0.99-39.12,9.78c0-13.04,0-26.08,0-39.12
			c6.52-3.48,20.43-9.78,39.12-9.78c7.39,0,22.63,0.99,39.12,9.78C1127.44,635.8,1127.44,648.84,1127.44,661.88z"/>
	</g>
</g>
</svg>
